<?xml version="1.0" standalone="no"?>
<!DOCTYPE svg PUBLIC "-//W3C//DTD SVG 20010904//EN"
 "http://www.w3.org/TR/2001/REC-SVG-20010904/DTD/svg10.dtd">
<svg version="1.0" xmlns="http://www.w3.org/2000/svg"
 width="2351.000000pt" height="2351.000000pt" viewBox="0 0 2351.000000 2351.000000"
 preserveAspectRatio="xMidYMid meet">
<metadata>
Created by potrace 1.11, written by Peter Selinger 2001-2013
</metadata>
<g transform="translate(0.000000,2351.000000) scale(0.100000,-0.100000)"
fill="#000000" stroke="none">
<path d="M11472 21574 c-182 -40 -410 -145 -562 -258 -47 -35 -133 -113 -191
-174 -195 -201 -329 -433 -585 -1010 -8 -18 -18 -31 -23 -28 -13 8 -86 -189
-172 -468 -64 -210 -91 -325 -84 -366 6 -34 1 -43 -73 -136 -161 -201 -361
-401 -517 -517 -178 -132 -388 -204 -445 -152 -20 18 -26 18 -223 2 -111 -10
-210 -17 -219 -17 -17 0 -18 26 -18 400 l0 400 -120 0 -120 0 0 -409 c0 -226
-3 -412 -7 -414 -5 -3 -45 -8 -90 -11 l-83 -7 0 465 0 466 -120 0 -120 0 0
-474 c0 -444 -1 -475 -17 -480 -10 -2 -57 -7 -105 -11 l-88 -7 0 506 0 506
-120 0 -120 0 0 -520 0 -520 -29 0 c-15 0 -56 -3 -90 -6 l-61 -7 0 537 0 536
-120 0 -120 0 0 -545 0 -545 -22 -4 c-13 -3 -58 -8 -100 -11 l-78 -7 0 546 0
546 -120 0 -120 0 0 -555 c0 -436 -3 -556 -12 -560 -7 -2 -41 -6 -75 -10 l-63
-6 0 521 0 520 -120 0 -120 0 0 -529 0 -529 -22 -6 c-13 -3 -44 -6 -70 -6
l-48 0 -2 478 -3 477 -117 3 -118 3 0 -490 c0 -269 -4 -492 -8 -495 -4 -2 -47
-8 -95 -12 l-87 -7 0 447 0 446 -120 0 -120 0 0 -460 c0 -431 -1 -460 -17
-460 -10 0 -60 -5 -112 -10 -80 -9 -97 -14 -117 -35 -13 -14 -28 -25 -35 -25
-7 0 -574 -88 -1261 -195 l-1249 -195 -87 -44 c-181 -91 -361 -225 -526 -391
-198 -199 -346 -410 -493 -705 -51 -102 -93 -176 -94 -165 -1 19 -32 -65 -80
-210 -28 -85 -76 -300 -100 -440 -25 -145 -34 -466 -43 -1405 -10 -947 -24
-2183 -43 -3605 -10 -764 -17 -1954 -17 -2985 -1 -1608 0 -1721 17 -1805 58
-293 186 -543 376 -736 228 -230 533 -362 917 -399 170 -16 1313 -25 1551 -11
151 8 336 30 727 86 l525 75 203 -15 c112 -8 257 -20 323 -26 141 -12 1725
-16 10200 -29 l6060 -10 112 55 c62 29 147 77 190 106 105 70 240 208 281 285
64 122 60 45 71 1584 6 773 13 1675 16 2005 3 330 7 902 10 1270 25 3170 35
4333 40 4777 l5 517 -26 3 c-21 2 -43 26 -106 119 -72 105 -79 118 -67 137 11
17 9 38 -10 128 -44 205 -162 577 -172 545 -3 -7 -27 37 -54 96 -260 567 -565
952 -965 1216 -223 147 -354 201 -961 395 -544 175 -858 261 -1020 282 -96 12
-169 43 -297 126 -401 261 -775 766 -978 1322 -37 100 -42 121 -19 82 22 -39
18 -19 -16 72 -77 206 -178 584 -229 858 -36 196 -37 200 -55 200 -8 0 -31 26
-51 58 -166 259 -507 425 -973 472 -69 7 -916 10 -2555 9 -2041 -1 -2462 -3
-2514 -15z m3073 -3399 c913 -35 1925 -315 2746 -761 602 -326 1098 -700 1579
-1190 497 -506 870 -1034 1186 -1679 538 -1099 748 -2309 614 -3540 -131
-1194 -611 -2356 -1359 -3290 -224 -280 -569 -642 -806 -846 -1006 -867 -2180
-1396 -3463 -1558 -447 -57 -1019 -65 -1467 -21 -1947 190 -3690 1233 -4780
2860 -617 920 -976 1964 -1067 3095 -16 206 -16 744 0 950 128 1596 796 3029
1930 4137 733 716 1616 1244 2597 1554 537 170 1129 272 1710 294 195 7 269 6
580 -5z m-9674 -534 l116 -8 114 -63 c393 -216 643 -442 665 -602 5 -35 -1
-67 -30 -153 -171 -511 -522 -839 -1029 -960 -226 -54 -255 -56 -997 -65 -382
-5 -871 -14 -1087 -20 l-392 -12 -65 36 c-131 73 -251 187 -330 313 -89 143
-143 403 -116 553 63 346 375 641 842 795 243 79 457 116 828 139 691 44 1258
62 1481 47z m2514 -1491 c197 -60 346 -204 410 -394 30 -88 36 -222 15 -311
-52 -217 -249 -403 -480 -451 -145 -31 -319 -3 -455 72 -82 45 -196 167 -239
254 -39 80 -66 186 -66 260 0 212 142 433 341 528 46 23 116 48 154 56 91 20
227 14 320 -14z"/>
<path d="M13845 16789 c-582 -44 -1182 -192 -1662 -410 -23 -10 -50 -19 -60
-19 -21 0 -95 -59 -76 -60 15 0 207 -120 211 -132 2 -4 8 -8 13 -8 6 0 58 -31
117 -69 196 -125 406 -254 467 -286 90 -47 576 -354 608 -383 27 -25 37 -72
16 -72 -6 0 -151 88 -322 197 -172 108 -449 282 -617 388 -168 105 -350 220
-405 255 -55 35 -125 78 -155 95 -30 18 -104 62 -164 98 -112 69 -145 78 -201
57 -14 -5 -141 -122 -283 -260 -141 -137 -265 -250 -274 -250 -27 0 -41 -37
-33 -88 6 -41 5 -45 -9 -33 -13 11 -16 11 -16 -1 0 -18 -56 -73 -63 -61 -12
21 -22 73 -26 133 -2 29 -4 32 -10 15 -14 -34 6 -123 42 -188 l34 -62 -139
-125 c-77 -69 -195 -182 -263 -252 l-125 -126 213 -209 c270 -266 379 -369
393 -374 6 -2 73 -62 148 -134 75 -71 144 -134 154 -138 12 -5 87 11 220 48
111 31 214 58 229 60 16 2 38 7 49 10 26 8 39 -17 24 -45 -11 -21 -19 -23
-309 -101 -144 -38 -201 -49 -218 -43 -13 5 -227 207 -474 449 -248 242 -465
448 -482 457 -18 9 -54 17 -80 18 -56 0 -46 9 -368 -307 -97 -95 -183 -173
-192 -173 -35 0 -50 -31 -44 -89 3 -31 3 -50 0 -43 -4 10 -16 3 -43 -23 -33
-32 -38 -34 -45 -18 -17 44 -32 117 -27 136 4 14 2 18 -7 13 -18 -12 -3 -107
25 -167 13 -27 24 -52 24 -56 0 -5 18 -34 39 -65 34 -51 38 -62 34 -102 -4
-28 0 -55 10 -74 13 -27 13 -34 0 -59 -8 -15 -49 -100 -90 -188 -156 -335
-270 -651 -347 -965 -110 -447 -150 -781 -150 -1245 1 -570 78 -1053 253
-1585 84 -252 159 -434 290 -699 55 -112 99 -207 96 -210 -11 -18 30 -146 66
-205 22 -37 48 -100 59 -140 25 -98 67 -178 139 -267 61 -75 544 -552 675
-666 70 -62 166 -120 244 -147 22 -8 87 -50 145 -94 462 -352 1020 -644 1557
-817 1004 -322 2122 -320 3120 7 491 161 862 344 1330 659 l176 118 64 -21
c56 -19 89 -22 230 -22 186 -1 233 8 376 74 111 51 186 104 270 191 89 93 146
190 194 327 21 59 54 143 74 187 65 141 78 200 83 398 4 134 3 177 -7 177 -6
0 -11 -12 -10 -27 1 -16 1 -39 1 -53 -2 -22 -5 -18 -27 23 -13 26 -29 47 -35
47 -7 0 -6 9 4 23 27 42 215 382 260 473 228 456 393 983 471 1510 42 287 51
411 51 754 -1 435 -34 729 -131 1169 -34 155 -34 157 -24 281 8 86 8 138 1
165 -10 36 -10 35 -5 -22 2 -34 1 -64 -3 -66 -5 -3 -22 19 -37 49 -20 38 -32
52 -39 45 -11 -11 -63 106 -138 314 -22 61 -52 130 -66 154 -14 23 -56 106
-95 184 -97 196 -171 323 -314 537 -433 652 -993 1177 -1679 1579 -216 126
-646 331 -695 331 -7 0 -62 20 -123 44 -254 100 -568 181 -787 202 -297 29
-699 10 -1005 -47 -126 -23 -415 -93 -482 -115 -25 -9 -47 -13 -50 -11 -6 7
128 47 287 87 151 37 431 85 595 102 130 13 480 16 585 5 l65 -7 -65 15 c-266
61 -863 92 -1235 64z m1390 -203 c294 -49 467 -101 695 -208 104 -49 243 -127
285 -160 6 -4 63 -49 128 -100 158 -121 1282 -1240 1411 -1403 87 -109 193
-272 183 -281 -2 -3 -26 26 -53 63 -113 159 -275 331 -841 894 -632 629 -693
683 -920 821 -262 159 -540 256 -888 310 -114 17 -187 21 -390 22 -145 1 -296
-4 -360 -12 -310 -36 -767 -139 -840 -188 -25 -18 -35 -18 -35 1 0 28 30 62
68 78 67 30 320 92 552 136 57 11 271 38 350 44 124 10 560 -1 655 -17z m-12
-136 c406 -60 766 -216 1077 -467 41 -33 341 -326 667 -649 592 -589 685 -691
801 -871 45 -72 162 -293 162 -308 0 -14 100 -206 130 -251 51 -74 171 -209
190 -212 10 -2 45 6 78 17 80 27 180 27 256 1 182 -62 287 -230 274 -436 -6
-87 -32 -137 -110 -209 -29 -27 -181 -175 -338 -328 -316 -309 -348 -332 -471
-343 -161 -15 -354 99 -417 247 -58 135 -23 311 80 405 21 18 45 34 52 34 42
0 29 33 -57 140 -302 376 -406 428 -727 365 -163 -32 -304 1 -457 106 -24 17
-48 29 -53 27 -5 -2 -65 -57 -132 -123 -68 -66 -292 -284 -498 -485 -206 -200
-483 -471 -615 -603 l-240 -238 31 -13 c17 -8 42 -27 55 -44 13 -16 38 -37 54
-45 17 -8 51 -35 76 -59 26 -24 62 -54 81 -68 19 -14 212 -188 429 -388 217
-200 405 -369 416 -375 12 -7 189 -167 394 -357 205 -190 486 -448 624 -575
137 -126 282 -261 320 -301 39 -39 180 -172 314 -295 134 -123 294 -271 357
-329 127 -117 155 -151 209 -259 142 -278 82 -583 -158 -807 -200 -187 -472
-247 -720 -157 -160 57 -216 104 -572 473 -88 91 -218 226 -290 300 -72 74
-317 329 -545 565 -367 381 -630 654 -1090 1130 -74 77 -209 216 -298 308
-141 145 -163 172 -158 193 5 18 3 22 -9 17 -18 -6 -75 42 -75 65 0 35 -63
-20 -330 -287 -286 -286 -378 -380 -1040 -1061 -195 -201 -448 -459 -561 -575
-113 -115 -367 -375 -564 -578 -211 -216 -378 -380 -407 -397 -148 -91 -327
-75 -526 47 -42 26 -242 215 -532 503 -186 184 -233 237 -260 289 -57 111 -52
214 18 344 19 36 107 124 327 330 165 155 370 350 455 433 85 83 232 222 325
310 993 928 1118 1044 1132 1044 6 0 13 4 15 8 3 9 284 273 453 427 54 50 122
111 150 138 29 26 58 47 65 47 7 0 31 19 55 43 23 24 55 53 71 65 l29 21 -44
45 c-40 41 -43 47 -30 63 13 16 12 17 -3 5 -10 -8 -21 -12 -25 -10 -8 3 -78
75 -517 531 -155 160 -226 227 -241 227 -12 0 -314 -54 -671 -120 l-649 -119
-28 32 c-15 17 -94 124 -175 237 -215 301 -656 908 -809 1115 -115 153 -134
184 -131 211 3 26 38 65 215 238 143 139 219 206 233 206 15 0 141 -116 408
-377 584 -570 576 -563 600 -563 12 0 86 19 164 41 291 84 382 109 438 121
l57 11 57 191 c32 105 74 247 94 314 l36 124 -139 136 c-77 75 -212 206 -300
291 -88 86 -239 233 -335 327 -96 94 -182 175 -191 180 -9 5 -19 21 -22 35 -6
24 14 47 233 259 213 205 244 231 266 226 13 -4 71 -37 127 -75 105 -70 640
-410 1216 -772 178 -112 326 -210 329 -218 7 -18 -10 -103 -64 -321 -23 -96
-72 -301 -108 -455 -36 -154 -79 -338 -95 -408 -38 -158 -38 -163 -3 -175 15
-5 57 -36 94 -68 289 -256 437 -391 440 -401 5 -17 315 -301 348 -318 16 -8
31 -24 35 -34 3 -11 20 -32 36 -46 48 -40 99 -29 99 21 0 23 -61 84 -84 84 -7
0 -19 11 -26 25 -13 24 -287 281 -319 299 -54 30 -503 464 -495 478 4 5 32 8
63 6 l56 -3 9 48 c7 33 14 46 23 43 15 -6 17 5 4 20 -9 9 26 193 38 204 4 3 6
12 6 20 0 34 39 190 47 190 5 0 6 -4 3 -10 -3 -5 -1 -10 4 -10 14 0 14 27 1
35 -11 7 -3 52 11 71 5 6 6 14 3 17 -4 3 -3 14 1 24 7 17 8 17 15 -2 8 -19 9
-19 9 3 1 12 -4 22 -9 22 -6 0 -8 11 -4 28 10 41 21 47 17 10 l-3 -33 11 34
c8 25 7 36 -1 41 -7 4 -10 16 -7 26 3 11 11 39 18 64 10 37 13 42 20 25 7 -19
8 -19 8 3 1 12 -3 22 -9 22 -5 0 -10 13 -10 29 0 41 -16 78 -44 105 l-25 22
16 85 c9 46 18 86 19 88 6 7 192 41 314 58 154 20 583 23 745 5 163 -19 347
-50 457 -76 171 -43 370 -109 375 -126 3 -8 18 -43 34 -77 21 -46 34 -62 51
-65 19 -2 24 -10 26 -40 2 -23 -1 -38 -8 -38 -18 0 -58 -101 -64 -165 -4 -34
-1 -99 7 -148 11 -72 11 -90 0 -99 -21 -17 -15 -32 22 -52 27 -15 32 -22 25
-36 -12 -22 -616 -620 -759 -751 -187 -172 -391 -372 -396 -390 -4 -10 -15
-21 -26 -24 -39 -13 -79 -56 -79 -86 0 -67 93 -55 127 16 9 19 25 38 36 41 11
3 196 182 411 397 415 415 808 787 830 787 7 0 19 7 26 15 9 11 5 27 -20 78
-57 116 -64 286 -15 379 47 89 55 109 66 173 54 309 -192 691 -626 971 -256
165 -565 288 -829 329 -115 18 -228 12 -361 -20 -86 -21 -115 -19 -115 5 0 26
14 32 175 73 476 121 907 153 1288 97z m967 -76 c0 -2 -13 2 -30 11 -16 9 -30
18 -30 21 0 2 14 -2 30 -11 17 -9 30 -18 30 -21z m-2902 -691 c234 -146 292
-187 292 -204 0 -10 -579 354 -580 364 0 18 49 -10 288 -160z m-2012 -1154
c90 -88 128 -119 141 -115 42 12 313 86 318 86 15 0 2 -18 -20 -28 -39 -18
-272 -82 -298 -82 -15 0 -62 40 -152 130 -71 72 -126 130 -121 130 5 0 64 -54
132 -121z m7340 -574 c70 -16 177 -55 171 -62 -3 -2 -22 3 -42 12 -65 26 -166
46 -268 52 -54 3 -94 9 -88 12 17 11 159 2 227 -14z m-364 -74 l30 -33 67 8
c133 17 270 -4 371 -56 49 -25 147 -115 176 -161 42 -68 26 -70 -38 -6 -124
123 -265 173 -456 163 -113 -5 -114 -5 -138 21 -28 30 -94 136 -94 149 0 5 12
-4 26 -21 15 -16 40 -45 56 -64z m-1798 -756 c42 -19 104 -42 138 -52 85 -23
267 -23 370 0 60 13 87 15 130 7 72 -14 140 -57 150 -95 9 -36 64 -106 81
-102 8 1 13 -22 14 -78 1 -44 8 -111 14 -148 9 -51 10 -70 1 -76 -6 -3 -17
-37 -24 -74 -7 -37 -16 -67 -20 -67 -5 0 -8 5 -8 12 0 6 -2 9 -5 6 -3 -3 14
-45 39 -94 24 -49 49 -107 56 -129 49 -158 181 -289 337 -336 26 -7 45 -20 49
-32 10 -32 7 -374 -5 -492 -34 -334 -118 -674 -241 -980 -27 -66 -60 -142 -75
-169 l-25 -50 30 -30 c16 -17 128 -121 249 -231 121 -110 220 -205 220 -211 1
-6 43 -49 94 -96 168 -155 262 -254 290 -306 35 -64 22 -67 -27 -8 -20 24 -98
102 -174 173 -263 245 -711 653 -718 653 -5 0 -219 195 -504 460 -74 69 -220
204 -325 300 -389 355 -452 414 -520 485 -38 40 -240 229 -447 420 -324 297
-415 390 -369 373 28 -9 383 -327 748 -669 38 -35 65 -54 69 -47 4 6 11 72 17
147 22 314 -41 645 -183 950 l-49 104 222 217 c198 193 312 300 321 300 2 0
38 -16 80 -35z m1006 -70 c-7 -8 -16 -15 -21 -15 -5 0 -6 7 -3 15 4 8 13 15
21 15 13 0 13 -3 3 -15z m-5147 -331 c9 -3 59 -53 113 -110 l97 -105 -26 -67
c-35 -90 -82 -243 -96 -317 -7 -33 -19 -92 -27 -130 -9 -39 -14 -89 -12 -112
l3 -41 95 90 c52 50 138 127 190 173 52 46 115 102 140 124 49 44 78 54 60 22
-5 -11 -117 -119 -247 -242 -131 -122 -242 -229 -247 -238 -4 -9 -115 -115
-245 -236 -130 -121 -438 -409 -685 -640 -247 -231 -485 -451 -530 -489 -44
-38 -178 -159 -296 -270 -118 -110 -280 -261 -360 -335 -80 -73 -171 -161
-202 -195 -34 -36 -57 -55 -58 -45 0 33 67 114 198 237 75 70 148 140 162 155
54 62 232 235 373 365 81 75 147 144 147 153 0 10 -13 50 -29 91 -33 81 -101
329 -125 453 -43 216 -58 363 -63 622 -6 277 2 415 38 648 27 178 90 426 107
425 4 -1 35 -41 69 -90 52 -74 70 -91 106 -105 l44 -17 614 115 c608 114 663
122 692 111z m611 -402 c-19 -17 -29 -21 -32 -12 -5 15 51 63 57 47 2 -6 -9
-22 -25 -35z m2242 -99 c19 -18 24 -28 16 -31 -14 -4 -62 35 -62 50 0 15 17 8
46 -19z m-4371 -1681 c-17 -16 -102 -96 -190 -177 -88 -82 -188 -176 -222
-209 -35 -33 -63 -55 -63 -49 0 15 478 463 494 463 6 0 -3 -13 -19 -28z m6916
-461 c219 -202 271 -252 265 -258 -6 -7 -486 436 -486 449 0 10 24 -11 221
-191z m-1922 -954 c200 -207 368 -377 373 -377 37 0 -126 -107 -308 -202 -422
-220 -882 -352 -1359 -389 -165 -13 -551 -7 -700 11 -466 55 -981 226 -1345
445 -61 37 -110 70 -108 75 2 4 251 261 553 571 303 310 581 597 620 637 48
50 74 71 84 66 40 -16 257 -65 352 -78 134 -20 381 -20 516 -1 113 16 302 62
406 99 l68 24 242 -252 c133 -139 406 -422 606 -629z"/>
<path d="M14720 16281 c0 -6 6 -11 13 -11 6 0 75 -32 152 -71 430 -217 756
-517 898 -829 51 -110 70 -198 70 -320 l1 -105 45 -39 c147 -125 980 -946
1101 -1083 52 -60 69 -73 93 -73 78 0 201 -48 307 -120 106 -73 420 -429 440
-502 18 -60 -4 -104 -95 -193 -90 -87 -112 -132 -99 -200 8 -43 55 -115 97
-151 43 -37 125 -74 162 -74 60 1 110 38 303 225 105 103 192 191 192 196 0 5
-7 9 -15 9 -9 0 -27 11 -41 25 -14 14 -29 25 -34 25 -6 0 -15 9 -22 20 -7 11
-18 20 -25 20 -6 0 -13 6 -15 13 -3 14 -202 185 -225 194 -29 11 -23 37 19 75
l43 38 -210 207 c-115 114 -340 335 -500 493 -159 157 -537 528 -840 825 -302
297 -674 662 -825 811 -532 525 -598 588 -628 591 -108 10 -362 13 -362 4z"/>
<path d="M13582 14995 c0 -16 2 -22 5 -12 2 9 2 23 0 30 -3 6 -5 -1 -5 -18z"/>
<path d="M13563 14935 c-3 -9 -3 -18 -1 -21 3 -3 8 4 11 16 6 23 -1 27 -10 5z"/>
<path d="M13532 14785 c0 -16 2 -22 5 -12 2 9 2 23 0 30 -3 6 -5 -1 -5 -18z"/>
<path d="M13482 14570 c0 -14 2 -19 5 -12 2 6 2 18 0 25 -3 6 -5 1 -5 -13z"/>
<path d="M13452 14435 c0 -16 2 -22 5 -12 2 9 2 23 0 30 -3 6 -5 -1 -5 -18z"/>
<path d="M13432 14360 c0 -14 2 -19 5 -12 2 6 2 18 0 25 -3 6 -5 1 -5 -13z"/>
<path d="M13402 14220 c0 -14 2 -19 5 -12 2 6 2 18 0 25 -3 6 -5 1 -5 -13z"/>
<path d="M13382 14150 c0 -14 2 -19 5 -12 2 6 2 18 0 25 -3 6 -5 1 -5 -13z"/>
<path d="M14080 13574 c-14 -2 -70 -9 -125 -14 -111 -12 -175 -27 -175 -39 0
-17 264 -252 289 -257 46 -10 51 -13 51 -32 0 -24 41 -62 67 -62 24 0 63 44
63 70 0 12 11 20 35 24 47 9 307 258 288 276 -22 23 -391 48 -493 34z m135
-242 c-3 -8 -5 -20 -5 -28 0 -9 -11 -14 -29 -14 -24 0 -29 5 -33 28 -4 26 -2
27 34 27 28 0 37 -3 33 -13z"/>
<path d="M14132 13068 c-24 -31 -23 -56 4 -87 32 -38 62 -40 97 -3 45 47 17
102 -54 102 -20 0 -41 -6 -47 -12z"/>
<path d="M14672 12062 c-106 -103 -193 -192 -192 -198 0 -6 19 7 43 30 184
179 247 234 264 232 10 -2 12 -1 6 1 -20 7 -16 14 39 70 29 29 48 53 43 53 -6
0 -97 -85 -203 -188z"/>
<path d="M14751 11979 c-57 -60 -100 -109 -95 -109 5 1 59 50 119 110 61 60
103 109 95 109 -8 -1 -62 -50 -119 -110z"/>
<path d="M17511 9126 c-64 -23 -107 -69 -135 -149 -15 -40 -31 -100 -35 -132
-10 -68 2 -172 23 -214 18 -34 120 -87 193 -101 150 -28 330 72 368 204 43
147 -34 308 -180 377 -49 24 -73 29 -130 28 -38 0 -85 -6 -104 -13z m245 -450
c-34 -45 -126 -91 -163 -81 -43 10 -111 53 -129 81 -25 38 -11 39 41 2 40 -28
55 -33 105 -33 51 0 65 5 111 37 29 20 55 35 58 33 2 -3 -8 -20 -23 -39z"/>
<path d="M17262 12535 c-1 -11 5 -31 13 -45 9 -16 14 -19 15 -9 0 8 -4 19 -9
25 -5 5 -11 18 -14 29 l-5 20 0 -20z"/>
<path d="M3030 17350 c-368 -29 -658 -198 -740 -432 -27 -76 -29 -266 -5 -348
75 -246 359 -447 718 -505 119 -19 330 -19 443 0 374 65 653 267 719 522 75
286 -139 575 -520 702 -170 57 -391 79 -615 61z"/>
<path d="M19361 4245 c-47 -54 -64 -94 -69 -165 -9 -129 24 -187 181 -319 60
-50 111 -91 113 -91 3 0 -4 12 -15 26 -35 44 -54 120 -49 193 5 73 30 129 80
186 17 20 27 40 22 44 -33 30 -215 161 -222 161 -6 0 -24 -16 -41 -35z"/>
<path d="M16810 4013 c0 -27 7 -653 15 -1393 l15 -1345 67 -147 c38 -80 68
-146 69 -145 0 1 -6 654 -15 1452 l-15 1449 -64 88 c-35 49 -66 88 -68 88 -2
0 -4 -21 -4 -47z"/>
<path d="M19871 3998 c0 -18 4 -51 8 -73 8 -37 9 -35 10 27 0 37 -3 70 -9 73
-6 4 -10 -7 -9 -27z"/>
<path d="M6030 3900 c-82 -57 -131 -98 -141 -119 -9 -17 -29 -50 -43 -72 -26
-38 -22 -36 96 47 68 48 134 96 146 108 28 24 75 102 70 114 -1 4 -59 -31
-128 -78z"/>
<path d="M19883 3815 c0 -22 2 -30 4 -17 2 12 2 30 0 40 -3 9 -5 -1 -4 -23z"/>
<path d="M12774 3560 c0 -52 1 -74 3 -47 2 26 2 68 0 95 -2 26 -3 4 -3 -48z"/>
<path d="M2005 3566 c-205 -75 -360 -204 -474 -395 -44 -73 -97 -187 -116
-249 -6 -20 23 -8 212 86 l218 110 13 43 c36 119 136 289 234 395 50 55 38 56
-87 10z"/>
<path d="M10825 3430 c3 -5 15 -14 25 -20 15 -8 21 -6 30 10 10 18 8 20 -25
20 -22 0 -34 -4 -30 -10z"/>
<path d="M10020 3058 l-405 -372 -67 -113 c-43 -74 -59 -107 -44 -96 12 10
202 183 422 385 l399 368 53 100 c29 55 51 100 50 100 -2 0 -185 -167 -408
-372z"/>
<path d="M21770 3158 c-112 -139 -209 -260 -217 -269 -11 -14 3 -36 108 -175
67 -87 122 -160 123 -161 4 -5 514 632 516 642 0 8 -312 215 -325 215 -1 0
-94 -114 -205 -252z"/>
<path d="M20381 3279 c443 -578 719 -951 712 -962 -4 -6 -195 -245 -426 -531
-230 -285 -416 -523 -414 -530 3 -6 62 -73 132 -149 105 -115 130 -136 140
-125 21 22 855 1058 867 1077 9 15 -57 107 -417 582 l-428 564 -115 90 c-63
50 -121 94 -130 99 -9 5 27 -47 79 -115z"/>
<path d="M3691 3285 c-79 -47 -192 -120 -252 -162 -107 -75 -141 -104 -76 -65
17 10 84 50 147 87 63 38 160 100 215 138 166 116 160 116 -34 2z"/>
<path d="M5603 3316 c-39 -11 -75 -25 -80 -30 -9 -9 -2 -8 105 23 39 12 72 24
72 26 0 8 -22 4 -97 -19z"/>
<path d="M19423 3292 l-93 -25 0 -166 c0 -91 5 -542 11 -1001 l12 -835 120
-150 119 -150 -6 230 c-3 127 -11 595 -17 1040 l-11 810 -106 101 -106 101 59
11 c67 13 176 63 134 61 -13 0 -66 -12 -116 -27z"/>
<path d="M14353 3113 c-156 -155 -256 -346 -299 -569 -18 -94 -21 -298 -6
-409 l8 -60 8 70 c19 183 43 282 98 409 57 132 121 222 239 342 l79 80 -21
105 c-12 57 -22 105 -24 107 -1 2 -38 -32 -82 -75z"/>
<path d="M6904 3128 l-19 -23 23 19 c12 11 22 21 22 23 0 8 -8 2 -26 -19z"/>
<path d="M6794 3028 l-19 -23 23 19 c12 11 22 21 22 23 0 8 -8 2 -26 -19z"/>
<path d="M7219 2911 c-62 -39 -133 -123 -173 -206 -59 -121 -56 -128 21 -52
38 37 72 67 77 67 5 0 19 -12 31 -26 l22 -26 12 62 c7 35 23 94 36 133 14 39
23 72 21 74 -1 1 -23 -10 -47 -26z"/>
<path d="M8385 2749 c-48 -60 -85 -112 -82 -115 5 -5 129 148 162 199 37 57 4
23 -80 -84z"/>
<path d="M15615 2635 c31 -132 51 -456 35 -580 -31 -251 -138 -462 -270 -529
-90 -45 -88 -41 -26 -65 31 -12 68 -21 81 -21 21 0 27 -8 45 -69 11 -37 20
-73 20 -80 0 -45 101 71 150 173 84 174 110 348 91 612 -13 191 -31 303 -66
419 -23 74 -71 185 -60 140z"/>
<path d="M9980 2480 c-40 -36 -49 -48 -33 -45 12 2 30 8 41 14 11 6 22 7 26 4
3 -3 6 -1 6 5 0 7 3 11 8 11 29 -5 42 30 19 50 -9 7 -28 -4 -67 -39z"/>
<path d="M8507 1998 c-70 -102 -90 -140 -116 -222 -17 -55 -49 -137 -71 -183
-21 -46 -37 -83 -36 -83 6 0 184 275 205 317 34 69 115 293 106 293 -2 0 -42
-55 -88 -122z"/>
<path d="M3702 1885 c-143 -105 -178 -136 -218 -193 -67 -94 -125 -164 -218
-261 l-81 -84 161 121 c181 137 266 211 358 313 57 62 181 229 172 229 -2 0
-81 -56 -174 -125z"/>
<path d="M9540 1700 c0 -106 46 -410 62 -410 5 0 8 99 8 220 l0 220 -35 38
-34 37 -1 -105z"/>
<path d="M7934 1673 c-48 -65 -94 -126 -102 -136 -15 -16 -14 -17 1 -11 34 13
217 264 193 264 -4 0 -45 -53 -92 -117z"/>
<path d="M21600 1730 c-12 -17 -18 -35 -14 -42 5 -7 79 -107 165 -223 147
-196 168 -219 313 -348 86 -75 156 -135 156 -132 0 11 -581 775 -590 775 -5 0
-18 -13 -30 -30z"/>
</g>
</svg>
